<svg xmlns="http://www.w3.org/2000/svg" width="440" height="280" viewBox="0 0 440 280">
  <rect width="440" height="280" fill="#F4F6FC"/>
  <circle cx="383" cy="31" r="98" fill="#E4E9FF"/>
  <circle cx="31" cy="272" r="82" fill="#E8ECF8"/>
  <g opacity=".72">
    <rect x="302" y="54" width="86" height="15" rx="7.5" fill="#C9D4FF"/>
    <path d="M309.5 82h62v-11l24 18.5-24 18.5V97h-62a7.5 7.5 0 0 1 0-15Z" fill="#AFC0FF"/>
    <rect x="302" y="111" width="86" height="15" rx="7.5" fill="#C9D4FF"/>
  </g>
  <rect x="44" y="44" width="76" height="76" rx="19" fill="#3157D5"/>
  <rect x="61" y="62" width="31" height="8" rx="4" fill="#fff"/>
  <path d="M65 78h21v-6l15 10-15 10v-6H65a4 4 0 0 1 0-8Z" fill="#fff"/>
  <rect x="61" y="94" width="31" height="8" rx="4" fill="#fff"/>
  <text x="44" y="172" fill="#172033" font-family="-apple-system,BlinkMacSystemFont,'Segoe UI',sans-serif" font-size="42" font-weight="750" letter-spacing="-1.5">Push Row</text>
  <text x="45" y="207" fill="#58647B" font-family="-apple-system,BlinkMacSystemFont,'Segoe UI',sans-serif" font-size="16" font-weight="500">CRM records to Clay, in one click.</text>
  <rect x="44" y="230" width="124" height="3" rx="1.5" fill="#3157D5"/>
</svg>
